<?xml version="1.0" encoding="utf-8"?>
<!-- Generator: Adobe Illustrator 26.0.0, SVG Export Plug-In . SVG Version: 6.00 Build 0)  -->
<svg version="1.1" id="Слой_1" xmlns="http://www.w3.org/2000/svg" xmlns:xlink="http://www.w3.org/1999/xlink" x="0px" y="0px"
	 viewBox="0 0 1366 768" style="enable-background:new 0 0 1366 768;" xml:space="preserve">
<style type="text/css">
	.st0{fill:#FFFFFF;}
	.st1{fill:#008CFF;}
</style>
<g>
	<g>
		<g>
			<g>
				<path class="st0" d="M794.22,303.35c-33.4,19.32-71.61,31.25-112.43,33.44l111.58,193.33c21.65-33.11,50.85-60.79,85.18-80.65
					L794.22,303.35z"/>
				<path class="st0" d="M583.7,668h168.62c0-40.93,9.81-79.55,27.1-113.73H556.6C573.9,588.45,583.7,627.07,583.7,668z"/>
				<path class="st0" d="M541.92,303.33l-84.4,146.17c34.31,19.85,63.5,47.53,85.14,80.63l111.64-193.34
					C613.5,334.58,575.31,322.65,541.92,303.33z"/>
			</g>
			<path class="st1" d="M668.09,293.28c37.97,0,73.53-10.2,104.19-27.94l-81.53-141.26c-10.07-17.45-35.26-17.45-45.33,0
				l-81.55,141.24C594.53,283.07,630.11,293.28,668.09,293.28z"/>
			<path class="st1" d="M900.48,487.48C838.17,523.52,796.22,590.84,796.22,668h163.13c20.15,0,32.74-21.81,22.67-39.26
				L900.48,487.48z"/>
			<path class="st1" d="M435.58,487.5l-81.56,141.24c-10.07,17.45,2.52,39.26,22.67,39.26h163.12
				C539.82,590.85,497.88,523.54,435.58,487.5z"/>
		</g>
	</g>
</g>
</svg>
